<?xml version="1.0" encoding="UTF-8"?>
<svg viewBox="0 0 437.5 437.5" xmlns="http://www.w3.org/2000/svg" xmlns:xlink="http://www.w3.org/1999/xlink">
 <defs>
  <linearGradient id="a">
   <stop stop-color="#00dd62" offset="0"/>
   <stop stop-color="#b5ffff" offset="1"/>
  </linearGradient>
  <linearGradient id="b">
   <stop stop-color="#faff00" offset="0"/>
   <stop stop-color="#7aff00" offset="1"/>
  </linearGradient>
  <linearGradient id="c">
   <stop stop-color="#006aff" offset="0"/>
   <stop stop-color="#b5ffff" offset="1"/>
  </linearGradient>
  <linearGradient id="i" x1="-1.9441e-8" xlink:href="#c"/>
  <linearGradient id="h" x1="5.9996e-9" xlink:href="#a"/>
  <linearGradient id="k" xlink:href="#a"/>
  <linearGradient id="j" x1="-1.8716e-7" xlink:href="#c"/>
  <linearGradient id="g" x1="-9.839e-8" xlink:href="#a"/>
  <linearGradient id="f" x1="5.7636e-8" xlink:href="#a"/>
  <linearGradient id="e" x1="6.1834e-9" xlink:href="#b"/>
  <linearGradient id="d" x1="1.5726e-8" xlink:href="#b"/>
 </defs>
 <path d="m217.4 403.55c55.091 16.81 107.29-29.064 128.99-33.95-21.713-20.206-25.128-28.127-33.17-54.467-19.658 25.277-31.73 52.048-95.816 88.416z" fill="url(#f)" fill-rule="evenodd" stroke="url(#e)" stroke-linejoin="bevel" stroke-width="7.9071"/>
 <path d="m114.17 31.603c70.295-21.186 125.77 2.5895 147.59 13.958-34.259 8.9544-13.332 77.778-17.925 80.433-19.064-21.158-57.531-82.534-129.67-94.391z" fill="url(#h)" fill-rule="evenodd" stroke="url(#d)" stroke-linejoin="bevel" stroke-width="7.9071"/>
 <path d="m9.6502 236.1c-1.8009 6.0731 5.8385 41.974 16.078 42.926 12.013-0.1009 5.931-37.381 8.9585-36.776 2.366-0.5643 13.278 38.605 22.924 37.87 6.882-0.5156 5.7734-52.508 8.0819-53.357 4.0722-1.043 17.906 31.06 23.889 27.749 11.2-7.1313 11.991-54.674 12.639-51.046 2.2172 2.4607 23.273 21.943 26.404 24.356 1.6171 0.0743 5.9327-21.325 1.9916-33.014-25.983-25.299-113.51 31.674-120.97 41.293z" fill="#fff" fill-rule="evenodd" stroke="#000" stroke-width="2.777"/>
 <path d="m33.502 378.41c-4.7624-2.8711-18.034-40.302-2.3881-44.453 10.731 5.4923 16.043 36.351 18.623 31.688 2.385-3.573-0.81759-26.87 5.2186-28.616 10.488-2.5162 22.244 24.728 24.047 23.769 2.6521-3.5665-3.8928-25.646 0.13417-30.774 3.889-5.2386 25.26 10.253 24.963 8.158 4.0997-2.1155-11.962-36.396-4.8953-43.227 2.6355-6.5155 21.098 8.1419 19.407 4.9248 0.0432-3.7318-15.991-20.903-9.3402-32.359 8.0021-9.4216 26.874 10.301 31.082 22.284 2.8601 59.41-99.098 85.563-106.85 88.606z" fill="#fff" fill-rule="evenodd" stroke="#000" stroke-width="2.777"/>
 <path d="m332.52 269.85c-24.409-101.22-183.85-243.63-217.36-240.4-31.344 2.3512-104.14 156.02-106.26 212.16 13.286 12.851 59.717 37.798 107.31-56.148 26.24 61.116 12.248 214.85-92.638 171.88 1.5243 22.304 2.0344 69.589 100.68 58.423 148.72-4.6282 201.45-128.6 208.27-145.92z" fill="url(#i)" fill-rule="evenodd" stroke="#000086" stroke-width="7.9071"/>
 <path d="m110.4 39.395c-32.929 40.539-97.205 171.92-87.323 190.92 15.252 3.2974 90.991-100.5 176.92-100.87 9.6945-24.453-55.213-72.741-89.596-90.045z" fill="#fff" fill-opacity=".5612" fill-rule="evenodd"/>
 <path d="m173.08 117.2c0 21.975-16.923 39.789-37.8 39.789s-37.8-17.814-37.8-39.789 16.923-39.789 37.8-39.789 37.8 17.814 37.8 39.789z" fill="#fff" fill-rule="evenodd" stroke="#00009e" stroke-width="6.25"/>
 <path d="m133.68 132.32c0 8.2357-6.8743 14.912-15.354 14.912s-15.354-6.6765-15.354-14.912 6.8743-14.912 15.354-14.912 15.354 6.6765 15.354 14.912z" fill-rule="evenodd"/>
 <path d="m429.24 65.543c-8.6748 41.534-39.478 260.84 6.3665 341.68-15.247 2.6348-36.886-5.9066-46.233-15.02-16.742-16.324-46.128-114.23-50.162-122.41 1.1132-15.197 11.27-83.667 21.086-116.77 6.0952-20.296 51.244-69.518 68.942-87.471z" fill="url(#j)" fill-rule="evenodd" stroke="#0000a1" stroke-width="6.539"/>
 <path d="m142.73 222.89c10.77 46.833-5.0008 159.48-22.976 188.27-7.1861 6.3962-18.059 3.808-24.252 2.5791 28.819-14.798 48.528-147.72 47.227-190.85z" fill="url(#g)" fill-rule="evenodd" stroke="#0000cd" stroke-linejoin="bevel" stroke-width="2.777"/>
 <path d="m205.2 290.13c-2.5259-0.4608-2.5008-6.3697-0.2499-9.5325 8.9799-4.3339 6.2829-9.8233 7.8868-17.118-0.9791-8.6264-3.6311-16.646-6.8131-25.024-0.9168-8.3101-0.4533-12.685 6.4655-19.493 5.2987-5.7375 7.677-9.3095 6.4941-16.043-2.6272-5.9375-0.5962-90.785-2.4632-96.85-0.1827-2.896 25.174 22.444 25.274 24.745 3.6503 9.3734-13.831 65.317-11.272 71.116 1.3047 8.2406-1.2265 12.796-7.7508 19.784-5.5723 5.4687-0.6565 31.136 0.4289 41.925-1.9065 9.2647-4.6581 20.51-15.92 26.114l-2.0804 0.3758z"/>
 <path d="m228.69 367.07c6.9847 0.0619 6.0848-11.062 12.304-13.202 7.2586-5.6102 12.337-9.5049 17.823-22.092 3.6018-8.2591-7.1712-17.537-9.441-26.904-2.6434-9.6179 4.1558-17.437 10.549-25.737 4.1364-6.0718-10.264-15.91-5.5281-25.111 2.7917-4.9725 11.489-16.47 15.551-29.551s9.4557-39.682 12.601-44.529c6.3135 3.2782 10.396 16.903 17.852 24.879-3.0487 4.6858-3.7124 22.779-9.161 34.517s-16.676 21.098-19.221 25.968c-5.57 6.6639 3.169 13.407-1.2834 19.948-4.7355 6.1171-9.3289 9.4224-7.7184 16.576 7.2043 10.632 6.2683 19.18 7.78 31.294 0.3981 13.576-8.3528 17.266-25.093 25.104-7.7508 2.9167-9.065 11.005-17.605 12.184l0.5906-3.3445z"/>
 <path d="m215.16 394.22c-4.7754 2.22-16.85-5.0151-22.353-13.846-4.0928-8.4513-1.1519-17.932 3.3727-25.232 3.1414-5.6331-11.122-20.22-17.191-26.832-2.0261-6.2222-1.1309-9.9204 1.3206-15.946 1.9327-4.5287 4.3055-11.394 8.3682-13.198-0.0964 4.5228 2.554 7.843 0.4322 12.788-1.821 4.4615-2.9696 9.0363-1.6791 13.712 5.4122 6.3243 23.837 25.07 19.596 34.842-3.7662 6.0073-3.9788 8.157-5.3274 15.112 4.5807 7.9706 12.176 15.112 13.46 18.6z"/>
 <path d="m297.44 392c-36.158 4.7073-51.289 5.3819-32.135-15.258 2.2716-3.1734 24.241-25.435 23.572-6.4457-15.528 15.748-0.6809 13.685 25.473 10.509 18.856-3.8389 11.267 5.5257-16.911 11.195z"/>
 <path d="m235.45 33.936c-12.332-4.3668-23.533 1.7768-40.007 2.8913-12.917 2.6392-15.605 10.866-7.2096 23.943 5.6289 9.6226 35.045 24.446 28.213 9.3747-7.0122-10.819-14.769-13.83-15.581-22.321 13.931-1.5237 30.237-12.256 34.585-13.888z"/>
 <path d="m154.18 240.54c5.9684 10.246 39.111 27.259 55.817 37.458 12.709-0.1421 18.756-7.1595 24.456-6.6218 7.7609-11.62-21.866-31.088-26.758-36.805-2.6946-4.6543-43.568-1.3263-53.515 5.9684z" fill="url(#k)" fill-rule="evenodd" stroke="#0000ba" stroke-width="6.25"/>
 <path d="m358.1 232.59c17.232-30.783 61.827-110.91 53.715-125.34-12.52-2.5039-27.331 17.397-35.81 35.81-7.9577 18.568-16.734 55.236-17.905 89.525z" fill="#fff" fill-opacity=".5612" fill-rule="evenodd"/>
</svg>
